<svg xmlns="http://www.w3.org/2000/svg" width="567.199" height="320.769" viewBox="0 0 567.199 320.769" class="cloud">
    <path id="Path_1304" d="M17730.148,2873.708s95.063-13.339,121.139,51.454-15.738,141.289-86.2,158.175-119.375,2.913-144.994-13.974c-1.164,1.164-87.93,68.5-201.48,0,1.17.582-58.8,28.533-103.648-5.241s-17.656-104.947,25.039-96.662c1.748-.583-7.92-53.776,56.721-70.08s92.355,46.2,92.355,46.2-39.605-39.6-6.992-96.663,88.5-68.711,122.281-67.547,99.578,13.975,121.705,78.029C17726.652,2858.568,17730.148,2873.708,17730.148,2873.708Z" 
    transform="translate(-17291.904 -2779.299)" 
    fill="#FAFAFA"></path>
</svg>

